<?xml version="1.0" encoding="UTF-8" standalone="no"?>
<svg
   xmlns:dc="http://purl.org/dc/elements/1.1/"
   xmlns:cc="http://creativecommons.org/ns#"
   xmlns:rdf="http://www.w3.org/1999/02/22-rdf-syntax-ns#"
   xmlns:svg="http://www.w3.org/2000/svg"
   xmlns="http://www.w3.org/2000/svg"
   xmlns:sodipodi="http://sodipodi.sourceforge.net/DTD/sodipodi-0.dtd"
   xmlns:inkscape="http://www.inkscape.org/namespaces/inkscape"
   width="722.02673mm"
   height="38.651905mm"
   viewBox="0 0 722.02674 38.651906"
   version="1.1"
   id="svg3185"
   inkscape:version="1.0.1 (3bc2e813f5, 2020-09-07)"
   sodipodi:docname="ombak.svg">
  <defs
     id="defs3179" />
  <sodipodi:namedview
     id="base"
     pagecolor="#ffffff"
     bordercolor="#666666"
     borderopacity="1.0"
     inkscape:pageopacity="0.0"
     inkscape:pageshadow="2"
     inkscape:zoom="0.34451171"
     inkscape:cx="958.81843"
     inkscape:cy="247.66641"
     inkscape:document-units="mm"
     inkscape:current-layer="layer1"
     inkscape:document-rotation="0"
     showgrid="false"
     fit-margin-top="0"
     fit-margin-left="0"
     fit-margin-right="0"
     fit-margin-bottom="0"
     inkscape:window-width="1267"
     inkscape:window-height="729"
     inkscape:window-x="83"
     inkscape:window-y="0"
     inkscape:window-maximized="0" />
  <metadata
     id="metadata3182">
    <rdf:RDF>
      <cc:Work
         rdf:about="">
        <dc:format>image/svg+xml</dc:format>
        <dc:type
           rdf:resource="http://purl.org/dc/dcmitype/StillImage" />
        <dc:title></dc:title>
      </cc:Work>
    </rdf:RDF>
  </metadata>
  <g
     inkscape:label="Layer 1"
     inkscape:groupmode="layer"
     id="layer1"
     transform="translate(221.60187,-114.03899)">
    <g
       id="g2369">
      <path
         id="rect97"
         style="opacity:0.705128;fill:#00ccff;stroke:#00ccff;stroke-width:0;stroke-miterlimit:4;stroke-dasharray:none"
         d="m 182.8618,114.03904 c -0.53991,2.7e-4 -1.08701,0.0117 -1.64227,0.0346 -12.47756,0.51467 -26.50887,7.87985 -38.50513,10.00456 h -3.71038 v 0.48524 c -0.42773,0.033 -0.85188,0.0569 -1.27278,0.0713 l 1.27278,-5.3e-4 v 28.03757 h 361.42083 v -28.5936 h -6.55516 c -10.29652,-1.87094 -26.87746,-9.92159 -40.79078,-9.99991 -15.55975,-0.0876 -24.74127,7.89092 -38.61779,9.99991 h -8.59846 -4.8183 c -13.85747,-2.096 -23.03692,-9.99199 -38.58524,-9.99784 -15.63706,-0.006 -24.8674,7.97707 -38.88238,9.99784 h -12.85555 c -14.01564,-2.01988 -23.24282,-9.99609 -38.88187,-10.00197 -15.7467,-0.006 -25.03259,8.0722 -39.23585,10.00197 H 220.62901 C 206.81056,122.14008 197.60055,114.02819 182.8618,114.039 Z m -45.13056,10.59574 -1.8216,10e-4 c 0.59923,0.0217 1.20684,0.0201 1.8216,-10e-4 z" />
      <path
         id="rect97-5"
         style="opacity:0.705128;fill:#00ccff;stroke:#00ccff;stroke-width:0;stroke-miterlimit:4;stroke-dasharray:none"
         d="M 177.45703,0.07226562 C 175.41639,0.0732483 173.34858,0.11657382 171.25,0.203125 124.09068,2.1483344 71.058983,29.985225 25.71875,38.015625 H 11.695312 v 1.833984 0.267579 105.968752 H 1377.6953 V 38.015625 h -24.7754 C 1314.0039,30.944356 1251.3358,0.51671572 1198.75,0.22070312 1139.9415,-0.11038349 1105.2397,30.044639 1052.793,38.015625 h -32.4981 -18.2109 C 949.70933,30.093735 915.01527,0.25062586 856.25,0.22851562 797.1493,0.20583846 762.26293,30.378069 709.29297,38.015625 H 660.70508 C 607.73258,30.381433 572.85814,0.23511425 513.75,0.21289062 454.23486,0.19021346 419.13857,30.722006 365.45703,38.015625 H 320.19922 C 267.97204,30.690523 233.16247,0.03140893 177.45703,0.07226562 Z"
         transform="matrix(0.26458333,0,0,0.26458333,-224.69625,114.03899)" />
    </g>
  </g>
</svg>
